<svg xmlns="http://www.w3.org/2000/svg" viewBox="0 0 512 512">
  <path d="M240,430 C240,400 220,380 210,350 C200,320 215,280 230,260 C215,255 190,260 180,245 C170,230 195,210 210,215 C200,200 175,195 185,180 C195,165 220,180 235,195 C235,170 225,140 240,130 C255,140 250,170 250,195 C260,175 270,150 285,155 C300,160 280,185 275,200 C290,190 315,185 320,200 C325,215 300,225 285,230 C295,245 320,250 310,270 C300,290 275,280 265,290 C275,320 295,350 285,390 C280,410 300,425 315,435 C290,435 270,420 260,405 C255,395 255,380 252,350 L244,350 C242,380 242,395 238,405 C228,420 210,435 185,435 C200,425 220,410 215,390 Z" fill="#b89753" />
  <path d="M256,100 C150,100 130,200 140,260 C150,320 190,340 220,330 C190,310 170,270 175,230 C180,190 210,150 256,145 C302,150 332,190 337,230 C342,270 322,310 292,330 C322,340 362,320 372,260 C382,200 362,100 256,100 Z" fill="#b89753" opacity="0.85" />
  <circle cx="256" cy="90" r="14" fill="#b89753"/>
  <circle cx="210" cy="110" r="13" fill="#b89753"/>
  <circle cx="302" cy="110" r="13" fill="#b89753"/>
  <circle cx="170" cy="145" r="14" fill="#b89753"/>
  <circle cx="342" cy="145" r="14" fill="#b89753"/>
  <circle cx="140" cy="195" r="15" fill="#b89753"/>
  <circle cx="372" cy="195" r="15" fill="#b89753"/>
</svg>
